<svg width="41" height="43" viewBox="0 0 41 43" fill="none" xmlns="http://www.w3.org/2000/svg">
<path fill-rule="evenodd" clip-rule="evenodd" d="M18.4157 11.048L20.5652 8.75469C22.2955 6.90569 25.3344 5.62429 28.3517 5.16275C29.6894 4.9404 31.0499 4.9211 32.3927 5.10542C33.583 5.29462 34.3112 5.66729 34.6497 6.03135C34.9909 6.39255 35.3402 7.16942 35.5175 8.43935C35.6895 9.66342 35.6761 11.1627 35.4638 12.7508C35.0339 15.9701 33.8302 19.2123 32.0972 21.0584L20.1514 33.8065L17.0723 30.5213C16.9476 30.388 16.7995 30.2823 16.6364 30.2101C16.4734 30.1379 16.2986 30.1007 16.1221 30.1005C15.9456 30.1004 15.7708 30.1374 15.6076 30.2093C15.4445 30.2813 15.2963 30.3868 15.1714 30.5199C14.9191 30.7886 14.7772 31.1533 14.777 31.5336C14.7769 31.722 14.8115 31.9085 14.8789 32.0825C14.9464 32.2566 15.0453 32.4148 15.17 32.548L19.2003 36.848C19.3251 36.9815 19.4733 37.0874 19.6365 37.1597C19.7998 37.2319 19.9747 37.2691 20.1514 37.2691C20.3281 37.2691 20.5031 37.2319 20.6663 37.1597C20.8295 37.0874 20.9778 36.9815 21.1026 36.848L22.5723 35.2771L25.7159 40.87C25.8207 41.0572 25.9642 41.2165 26.1355 41.3356C26.3068 41.4548 26.5012 41.5307 26.7041 41.5575C26.907 41.5843 27.113 41.5613 27.3063 41.4904C27.4996 41.4194 27.6752 41.3023 27.8197 41.148L33.1934 35.4147C33.341 35.257 33.4521 35.0648 33.5178 34.8533C33.5836 34.6418 33.6022 34.4169 33.5723 34.1964L32.3229 24.874L33.9995 23.088C36.2967 20.6342 37.6482 16.7097 38.1238 13.155C38.3656 11.3576 38.3925 9.57169 38.1748 8.01222C37.9599 6.49862 37.487 5.00222 36.552 4.00175C35.6143 3.00415 34.2117 2.49675 32.7904 2.27029C31.1901 2.04552 29.568 2.06483 27.9729 2.32762C24.6385 2.82929 20.9575 4.27122 18.6629 6.72222L16.989 8.51102L8.25137 7.17802C8.04469 7.14606 7.83386 7.16595 7.63564 7.23611C7.43741 7.30628 7.25725 7.42478 7.10946 7.58222L1.73576 13.3156C1.59112 13.4697 1.48137 13.6571 1.41486 13.8633C1.34836 14.0696 1.32685 14.2893 1.35199 14.5058C1.37712 14.7223 1.44823 14.9298 1.5599 15.1125C1.67157 15.2952 1.82086 15.4483 1.99638 15.5602L7.23574 18.9142L5.76603 20.4822C5.64093 20.6154 5.54167 20.7735 5.47394 20.9477C5.40621 21.1218 5.37135 21.3085 5.37135 21.497C5.37135 21.6856 5.40621 21.8722 5.47394 22.0464C5.54167 22.2205 5.64093 22.3787 5.76603 22.5118L9.79631 26.8118C9.92122 26.9451 10.0695 27.0508 10.2327 27.1229C10.3959 27.195 10.5708 27.2322 10.7475 27.2322C10.9241 27.2322 11.099 27.195 11.2622 27.1229C11.4254 27.0508 11.5737 26.9451 11.6986 26.8118C11.8235 26.6786 11.9226 26.5203 11.9902 26.3462C12.0578 26.1721 12.0926 25.9855 12.0926 25.797C12.0926 25.6086 12.0578 25.4219 11.9902 25.2478C11.9226 25.0737 11.8235 24.9155 11.6986 24.7822L8.61678 21.4999L10.3552 19.648L18.4157 11.048ZM27.1346 37.8227L24.5283 33.1873L29.9477 27.4081L30.8182 33.8925L27.1346 37.8227ZM9.19714 16.8272L14.6138 11.048L8.53618 10.1192L4.85519 14.0466L9.19714 16.8272ZM6.32221 29.6814C6.44712 29.5483 6.54623 29.3903 6.6139 29.2163C6.68157 29.0424 6.71646 28.8559 6.71658 28.6676C6.71671 28.4792 6.68206 28.2927 6.61463 28.1187C6.54719 27.9446 6.44829 27.7865 6.32356 27.6532C6.19883 27.5199 6.05072 27.4142 5.88768 27.342C5.72465 27.2698 5.54988 27.2326 5.37336 27.2324C5.19684 27.2323 5.02203 27.2693 4.8589 27.3412C4.69576 27.4132 4.54751 27.5187 4.42261 27.6518L1.73576 30.5184C1.48385 30.7876 1.34248 31.1524 1.34273 31.5328C1.34298 31.9132 1.48484 32.2778 1.7371 32.5466C1.98936 32.8154 2.33135 32.9662 2.68785 32.9659C3.04435 32.9657 3.38614 32.8143 3.63805 32.5452L6.32221 29.6814ZM10.3525 33.9814C10.4808 33.8491 10.5831 33.691 10.6536 33.5161C10.724 33.3412 10.761 33.1531 10.7626 32.9628C10.7641 32.7725 10.7301 32.5838 10.6626 32.4076C10.595 32.2315 10.4953 32.0714 10.3691 31.9369C10.243 31.8023 10.093 31.6958 9.92791 31.6238C9.7628 31.5517 9.5859 31.5154 9.40752 31.5171C9.22914 31.5188 9.05286 31.5583 8.88896 31.6334C8.72505 31.7085 8.57681 31.8177 8.45289 31.9546L3.07918 37.688C2.82728 37.9571 2.6859 38.322 2.68615 38.7023C2.68641 39.0827 2.82827 39.4474 3.08053 39.7161C3.33278 39.9849 3.67478 40.1357 4.03128 40.1355C4.38777 40.1352 4.72957 39.9838 4.98147 39.7147L10.3525 33.9814ZM14.3828 38.2814C14.5077 38.1483 14.6068 37.9903 14.6745 37.8163C14.7421 37.6424 14.777 37.4559 14.7771 37.2676C14.7773 37.0792 14.7426 36.8927 14.6752 36.7187C14.6077 36.5446 14.5088 36.3865 14.3841 36.2532C14.2594 36.1199 14.1113 36.0142 13.9482 35.942C13.7852 35.8698 13.6104 35.8326 13.4339 35.8324C13.2574 35.8323 13.0826 35.8693 12.9195 35.9412C12.7563 36.0132 12.6081 36.1187 12.4832 36.2518L9.79631 39.1184C9.54441 39.3876 9.40303 39.7524 9.40329 40.1328C9.40354 40.5132 9.5454 40.8778 9.79766 41.1466C10.0499 41.4154 10.3919 41.5662 10.7484 41.5659C11.1049 41.5657 11.4467 41.4143 11.6986 41.1452L14.3828 38.2814ZM25.5251 19.347C25.9658 19.347 26.4022 19.2544 26.8094 19.0745C27.2165 18.8945 27.5865 18.6308 27.8981 18.2983C28.2097 17.9658 28.4569 17.5711 28.6256 17.1367C28.7942 16.7023 28.881 16.2367 28.881 15.7666C28.881 15.2964 28.7942 14.8308 28.6256 14.3964C28.4569 13.962 28.2097 13.5673 27.8981 13.2348C27.5865 12.9023 27.2165 12.6386 26.8094 12.4586C26.4022 12.2787 25.9658 12.1861 25.5251 12.1861C24.6351 12.1861 23.7815 12.5633 23.1522 13.2348C22.5228 13.9062 22.1693 14.817 22.1693 15.7666C22.1693 16.7162 22.5228 17.6269 23.1522 18.2983C23.7815 18.9698 24.6351 19.347 25.5251 19.347Z" fill="black"/>
</svg>
