<svg width="310" height="345" viewBox="-10 -10 314 353" fill="none" xmlns="http://www.w3.org/2000/svg">
<path d="M303.299 236.3C273.933 299.651 198.947 327.466 135.371 298.59C164.737 235.238 239.723 207.423 303.299 236.3Z" fill="#EFA433" fill-opacity="0.74" stroke="black"/>
<mask id="path-2-inside-1_166_24" fill="white">
<path fill-rule="evenodd" clip-rule="evenodd" d="M250.811 224.434L270.428 280.237C284.262 268.532 295.81 253.681 303.877 236.127C286.66 228.214 268.595 224.456 250.811 224.434Z"/>
</mask>
<path fill-rule="evenodd" clip-rule="evenodd" d="M250.811 224.434L270.428 280.237C284.262 268.532 295.81 253.681 303.877 236.127C286.66 228.214 268.595 224.456 250.811 224.434Z" fill="white" fill-opacity="0.74"/>
<path d="M250.811 224.434L250.812 223.434L249.398 223.432L249.867 224.765L250.811 224.434ZM270.428 280.237L269.485 280.569L269.966 281.938L271.074 281.001L270.428 280.237ZM303.877 236.127L304.786 236.544L305.204 235.636L304.295 235.218L303.877 236.127ZM249.867 224.765L269.485 280.569L271.372 279.906L251.754 224.102L249.867 224.765ZM302.969 235.709C294.964 253.127 283.506 267.861 269.782 279.474L271.074 281.001C285.017 269.202 296.656 254.234 304.786 236.544L302.969 235.709ZM250.809 225.434C268.453 225.456 286.376 229.184 303.46 237.035L304.295 235.218C286.945 227.244 268.737 223.456 250.812 223.434L250.809 225.434Z" fill="black" mask="url(#path-2-inside-1_166_24)"/>
<path d="M170.129 234.914C170.129 288.532 136.212 331.777 94.6157 331.777C53.0191 331.777 19.1025 288.532 19.1025 234.914C19.1025 208.119 27.5861 176.575 41.304 151.738C48.1618 139.321 56.3159 128.603 65.35 120.994C74.3832 113.387 84.2716 108.907 94.6157 108.907C104.96 108.907 114.848 113.387 123.881 120.994C132.915 128.603 141.07 139.321 147.927 151.738C161.645 176.575 170.129 208.119 170.129 234.914Z" fill="#F3BC68" stroke="black"/>
<path d="M156.658 153.492C156.658 165.457 149.777 176.34 138.552 184.251C127.328 192.162 111.796 197.07 94.6157 197.07C77.4358 197.07 61.9036 192.162 50.6795 184.251C39.4541 176.34 32.5732 165.457 32.5732 153.492C32.5732 141.492 39.4884 127.294 50.7444 116.081C61.9913 104.876 77.5062 96.7192 94.6157 96.7192C111.725 96.7192 127.24 104.876 138.487 116.081C149.743 127.294 156.658 141.492 156.658 153.492Z" fill="#FCEED8" stroke="black"/>
<path d="M57.0191 329.756L50.5656 224.049H81.5917L78.375 329.431C78.1987 335.205 73.4667 339.795 67.6896 339.795C62.0384 339.795 57.3634 335.397 57.0191 329.756Z" fill="#F3BC68" stroke="black"/>
<mask id="path-7-inside-2_166_24" fill="white">
<path fill-rule="evenodd" clip-rule="evenodd" d="M56.4487 326.504L56.7115 330.852C57.0648 336.698 61.9086 341.257 67.7648 341.257C73.7503 341.257 78.6524 336.501 78.8332 330.518L78.9545 326.504H56.4487Z"/>
</mask>
<path fill-rule="evenodd" clip-rule="evenodd" d="M56.4487 326.504L56.7115 330.852C57.0648 336.698 61.9086 341.257 67.7648 341.257C73.7503 341.257 78.6524 336.501 78.8332 330.518L78.9545 326.504H56.4487Z" fill="#95733E"/>
<path d="M56.7115 330.852L57.7097 330.792L56.7115 330.852ZM56.4487 326.504V325.504H55.3865L55.4506 326.564L56.4487 326.504ZM78.8332 330.518L79.8327 330.549L78.8332 330.518ZM78.9545 326.504L79.9541 326.534L79.9852 325.504H78.9545V326.504ZM57.7097 330.792L57.4469 326.443L55.4506 326.564L55.7134 330.912L57.7097 330.792ZM67.7648 340.257C62.4374 340.257 58.0311 336.109 57.7097 330.792L55.7134 330.912C56.0986 337.286 61.3797 342.257 67.7648 342.257V340.257ZM77.8336 330.488C77.6692 335.931 73.2097 340.257 67.7648 340.257V342.257C74.2908 342.257 79.6356 337.072 79.8327 330.549L77.8336 330.488ZM77.955 326.474L77.8336 330.488L79.8327 330.549L79.9541 326.534L77.955 326.474ZM78.9545 325.504H56.4487V327.504H78.9545V325.504Z" fill="black" mask="url(#path-7-inside-2_166_24)"/>
<path d="M62.2217 339.212L64.0274 333.691" stroke="black" stroke-width="2"/>
<path d="M72.3662 339.853L70.5605 334.332" stroke="black" stroke-width="2"/>
<path d="M67.2735 341.26L67.3607 335.487" stroke="black" stroke-width="2"/>
<path d="M109.619 329.436L103.165 223.729H134.191L130.975 329.11C130.798 334.885 126.066 339.474 120.289 339.474C114.638 339.474 109.963 335.076 109.619 329.436Z" fill="#F3BC68" stroke="black"/>
<mask id="path-13-inside-3_166_24" fill="white">
<path fill-rule="evenodd" clip-rule="evenodd" d="M109.047 326.183L109.31 330.531C109.663 336.377 114.507 340.937 120.363 340.937C126.349 340.937 131.251 336.18 131.432 330.198L131.553 326.183H109.047Z"/>
</mask>
<path fill-rule="evenodd" clip-rule="evenodd" d="M109.047 326.183L109.31 330.531C109.663 336.377 114.507 340.937 120.363 340.937C126.349 340.937 131.251 336.18 131.432 330.198L131.553 326.183H109.047Z" fill="#95733E"/>
<path d="M109.31 330.531L110.308 330.471L109.31 330.531ZM109.047 326.183V325.183H107.985L108.049 326.243L109.047 326.183ZM131.432 330.198L132.431 330.228L131.432 330.198ZM131.553 326.183L132.553 326.213L132.584 325.183H131.553V326.183ZM110.308 330.471L110.046 326.123L108.049 326.243L108.312 330.592L110.308 330.471ZM120.363 339.937C115.036 339.937 110.63 335.789 110.308 330.471L108.312 330.592C108.697 336.965 113.978 341.937 120.363 341.937V339.937ZM130.432 330.168C130.268 335.61 125.808 339.937 120.363 339.937V341.937C126.889 341.937 132.234 336.751 132.431 330.228L130.432 330.168ZM130.554 326.153L130.432 330.168L132.431 330.228L132.553 326.213L130.554 326.153ZM131.553 325.183H109.047V327.183H131.553V325.183Z" fill="black" mask="url(#path-13-inside-3_166_24)"/>
<path d="M114.821 338.891L116.627 333.37" stroke="black" stroke-width="2"/>
<path d="M124.966 339.532L123.16 334.011" stroke="black" stroke-width="2"/>
<path d="M119.873 340.939L119.96 335.166" stroke="black" stroke-width="2"/>
<mask id="path-18-inside-4_166_24" fill="white">
<path fill-rule="evenodd" clip-rule="evenodd" d="M29.5078 316.24L29.7425 312.527C30.1119 306.682 34.9601 302.131 40.8166 302.131C46.8084 302.131 51.7181 306.888 51.9073 312.877L52.0136 316.24H29.5078Z"/>
</mask>
<path fill-rule="evenodd" clip-rule="evenodd" d="M29.5078 316.24L29.7425 312.527C30.1119 306.682 34.9601 302.131 40.8166 302.131C46.8084 302.131 51.7181 306.888 51.9073 312.877L52.0136 316.24H29.5078Z" fill="#95733E"/>
<path d="M29.7425 312.527L30.7405 312.59L29.7425 312.527ZM29.5078 316.24V317.24H28.4426L28.5098 316.177L29.5078 316.24ZM51.9073 312.877L50.9078 312.908V312.908L51.9073 312.877ZM52.0136 316.24L53.0131 316.209L53.0457 317.24H52.0136V316.24ZM30.7405 312.59L30.5058 316.303L28.5098 316.177L28.7445 312.464L30.7405 312.59ZM40.8166 303.131C35.4879 303.131 31.0766 307.272 30.7405 312.59L28.7445 312.464C29.1471 306.093 34.4323 301.131 40.8166 301.131V303.131ZM50.9078 312.908C50.7356 307.459 46.2685 303.131 40.8166 303.131V301.131C47.3484 301.131 52.7005 306.316 52.9068 312.845L50.9078 312.908ZM51.0141 316.272L50.9078 312.908L52.9068 312.845L53.0131 316.209L51.0141 316.272ZM52.0136 317.24H29.5078V315.24H52.0136V317.24Z" fill="black" mask="url(#path-18-inside-4_166_24)"/>
<path d="M35.9224 310.592L37.7281 315.872" stroke="black" stroke-width="2"/>
<path d="M46.0669 310.592L44.2612 315.872" stroke="black" stroke-width="2"/>
<path d="M41.0543 310.468L41.1415 315.988" stroke="black" stroke-width="2"/>
<mask id="path-23-inside-5_166_24" fill="white">
<path fill-rule="evenodd" clip-rule="evenodd" d="M137.273 316.238L137.508 312.525C137.877 306.68 142.725 302.128 148.582 302.128C154.574 302.128 159.483 306.885 159.672 312.874L159.779 316.238H137.273Z"/>
</mask>
<path fill-rule="evenodd" clip-rule="evenodd" d="M137.273 316.238L137.508 312.525C137.877 306.68 142.725 302.128 148.582 302.128C154.574 302.128 159.483 306.885 159.672 312.874L159.779 316.238H137.273Z" fill="#95733E"/>
<path d="M137.508 312.525L138.506 312.588L137.508 312.525ZM137.273 316.238V317.238H136.208L136.275 316.175L137.273 316.238ZM159.672 312.874L158.673 312.906V312.906L159.672 312.874ZM159.779 316.238L160.778 316.206L160.811 317.238H159.779V316.238ZM138.506 312.588L138.271 316.301L136.275 316.175L136.51 312.462L138.506 312.588ZM148.582 303.128C143.253 303.128 138.842 307.27 138.506 312.588L136.51 312.462C136.912 306.09 142.197 301.128 148.582 301.128V303.128ZM158.673 312.906C158.501 307.456 154.034 303.128 148.582 303.128V301.128C155.114 301.128 160.466 306.314 160.672 312.842L158.673 312.906ZM158.779 316.269L158.673 312.906L160.672 312.842L160.778 316.206L158.779 316.269ZM159.779 317.238H137.273V315.238H159.779V317.238Z" fill="black" mask="url(#path-23-inside-5_166_24)"/>
<path d="M143.687 310.59L145.493 315.87" stroke="black" stroke-width="2"/>
<path d="M153.832 310.59L152.026 315.87" stroke="black" stroke-width="2"/>
<path d="M148.819 310.465L148.907 315.986" stroke="black" stroke-width="2"/>
<path d="M63.7003 40.912L18.7515 60.9569C18.7434 60.8807 18.7348 60.7985 18.7258 60.7104C18.6641 60.1122 18.58 59.2425 18.4905 58.1589C18.3114 55.9915 18.1106 52.9699 18.024 49.5543C17.8505 42.7082 18.1378 34.3352 19.9479 28.0788C20.7471 25.3163 21.4728 20.9543 21.9971 17.3077C22.26 15.4791 22.4735 13.8216 22.6212 12.6213C22.6826 12.1225 22.7327 11.7026 22.7703 11.382C23.1383 11.563 23.6534 11.8165 24.282 12.1264C25.6091 12.7806 27.442 13.6858 29.4656 14.6902C33.5141 16.6994 38.3211 19.103 41.3675 20.686C46.6593 23.4358 52.338 28.601 56.7155 33.1127C58.8988 35.363 60.7483 37.44 62.0518 38.9543C62.7035 39.7113 63.2184 40.3273 63.57 40.7537C63.6163 40.8098 63.6597 40.8626 63.7003 40.912Z" fill="#F3BC68" stroke="black"/>
<path d="M55.6205 44.3341L27.4079 56.9154C27.3697 56.5401 27.3201 56.02 27.2676 55.3839C27.1536 54.0046 27.0258 52.0816 26.9707 49.9081C26.8602 45.5462 27.0444 40.2313 28.1903 36.2707C28.7038 34.4958 29.1679 31.703 29.5021 29.3787C29.67 28.2114 29.8062 27.1533 29.9005 26.3871C29.9251 26.1874 29.9469 26.0074 29.9656 25.8505C30.169 25.9506 30.4161 26.0723 30.6994 26.212C31.5454 26.629 32.714 27.2061 34.004 27.8464C36.5853 29.1275 39.6487 30.6592 41.5893 31.6677C44.9358 33.4066 48.5396 36.6817 51.3284 39.5561C52.7173 40.9876 53.8941 42.3091 54.7234 43.2726C55.0975 43.7071 55.4007 44.0686 55.6205 44.3341Z" fill="#FCEED8" stroke="black"/>
<path d="M123.96 40.912L168.909 60.9569C168.917 60.8807 168.925 60.7985 168.934 60.7104C168.996 60.1122 169.08 59.2425 169.17 58.1589C169.349 55.9915 169.55 52.9699 169.636 49.5543C169.81 42.7082 169.522 34.3352 167.712 28.0788C166.913 25.3163 166.187 20.9543 165.663 17.3077C165.4 15.4791 165.187 13.8216 165.039 12.6213C164.978 12.1225 164.927 11.7026 164.89 11.382C164.522 11.563 164.007 11.8165 163.378 12.1264C162.051 12.7806 160.218 13.6858 158.195 14.6902C154.146 16.6994 149.339 19.103 146.293 20.686C141.001 23.4358 135.322 28.601 130.945 33.1127C128.761 35.363 126.912 37.44 125.608 38.9543C124.957 39.7113 124.442 40.3273 124.09 40.7537C124.044 40.8098 124 40.8626 123.96 40.912Z" fill="#F3BC68" stroke="black"/>
<path d="M132.039 44.3341L160.252 56.9154C160.29 56.5401 160.34 56.02 160.392 55.3839C160.506 54.0046 160.634 52.0816 160.689 49.9081C160.799 45.5462 160.615 40.2313 159.469 36.2707C158.956 34.4958 158.492 31.703 158.158 29.3787C157.99 28.2114 157.853 27.1533 157.759 26.3871C157.735 26.1874 157.713 26.0074 157.694 25.8505C157.491 25.9506 157.244 26.0723 156.96 26.212C156.114 26.629 154.946 27.2061 153.656 27.8464C151.074 29.1275 148.011 30.6592 146.07 31.6677C142.724 33.4066 139.12 36.6817 136.331 39.5561C134.942 40.9876 133.766 42.3091 132.936 43.2726C132.562 43.7071 132.259 44.0686 132.039 44.3341Z" fill="#FCEED8" stroke="black"/>
<path d="M187.448 96.8607C187.448 113.285 177.143 128.222 160.34 139.077C143.542 149.93 120.307 156.658 94.6153 156.658C68.9241 156.658 45.6883 149.93 28.8905 139.077C12.0877 128.222 1.78271 113.285 1.78271 96.8607C1.78271 80.4366 12.0877 65.4994 28.8905 54.644C45.6883 43.7918 68.9241 37.0633 94.6153 37.0633C120.307 37.0633 143.542 43.7918 160.34 54.644C177.143 65.4994 187.448 80.4366 187.448 96.8607Z" fill="#FCEED8" stroke="black"/>
<mask id="path-33-inside-6_166_24" fill="white">
<path fill-rule="evenodd" clip-rule="evenodd" d="M187.648 91.0796C171.539 77.141 143.966 78.3798 122.55 95.0669C107.567 106.742 99.1793 123.189 98.7738 138.533C96.897 137.323 94.7226 136.631 92.4046 136.631C91.052 136.631 89.7484 136.867 88.5243 137.303C87.7162 122.316 79.3813 106.431 64.797 95.0669C44.3378 79.1249 18.2589 77.2825 1.92432 89.3033C7.23468 59.2591 46.7237 35.9219 94.6497 35.9219C143.516 35.9219 183.611 60.184 187.648 91.0796Z"/>
</mask>
<path fill-rule="evenodd" clip-rule="evenodd" d="M187.648 91.0796C171.539 77.141 143.966 78.3798 122.55 95.0669C107.567 106.742 99.1793 123.189 98.7738 138.533C96.897 137.323 94.7226 136.631 92.4046 136.631C91.052 136.631 89.7484 136.867 88.5243 137.303C87.7162 122.316 79.3813 106.431 64.797 95.0669C44.3378 79.1249 18.2589 77.2825 1.92432 89.3033C7.23468 59.2591 46.7237 35.9219 94.6497 35.9219C143.516 35.9219 183.611 60.184 187.648 91.0796Z" fill="#F3BC68"/>
<path d="M122.55 95.0669L121.936 94.2781L122.55 95.0669ZM187.648 91.0796L186.994 91.8358L188.98 93.5543L188.64 90.95L187.648 91.0796ZM98.7738 138.533L98.2319 139.373L99.7264 140.337L99.7734 138.559L98.7738 138.533ZM88.5243 137.303L87.5257 137.357L87.5979 138.695L88.8601 138.245L88.5243 137.303ZM64.797 95.0669L65.4116 94.2781L64.797 95.0669ZM1.92432 89.3033L0.93958 89.1292L0.504707 91.5896L2.51703 90.1087L1.92432 89.3033ZM123.165 95.8557C144.321 79.3708 171.347 78.2975 186.994 91.8358L188.302 90.3233C171.73 75.9846 143.611 77.3888 121.936 94.2781L123.165 95.8557ZM99.7734 138.559C100.17 123.551 108.387 107.371 123.165 95.8557L121.936 94.2781C106.746 106.114 98.1885 122.828 97.7741 138.506L99.7734 138.559ZM99.3156 137.692C97.2873 136.385 94.9263 135.631 92.4046 135.631V137.631C94.519 137.631 96.5068 138.261 98.2319 139.373L99.3156 137.692ZM92.4046 135.631C90.9349 135.631 89.5178 135.887 88.1884 136.361L88.8601 138.245C89.9791 137.846 91.1692 137.631 92.4046 137.631V135.631ZM89.5228 137.249C88.6974 121.941 80.1973 105.799 65.4116 94.2781L64.1823 95.8557C78.5653 107.063 86.735 122.691 87.5257 137.357L89.5228 137.249ZM65.4116 94.2781C44.6979 78.1378 18.1187 76.1441 1.3316 88.4978L2.51703 90.1087C18.3991 78.4209 43.9777 80.1121 64.1823 95.8557L65.4116 94.2781ZM2.90905 89.4773C5.49615 74.8405 16.4388 61.7093 32.808 52.2109C49.1643 42.72 70.8408 36.9219 94.6497 36.9219V34.9219C70.5325 34.9219 48.5016 40.7923 31.8043 50.4811C15.1199 60.1623 3.66285 73.7219 0.93958 89.1292L2.90905 89.4773ZM94.6497 36.9219C118.926 36.9219 140.985 42.95 157.448 52.7736C173.923 62.6048 184.691 76.1655 186.656 91.2091L188.64 90.95C186.568 75.0981 175.27 61.0799 158.472 51.0561C141.662 41.0248 119.24 34.9219 94.6497 34.9219V36.9219Z" fill="black" mask="url(#path-33-inside-6_166_24)"/>
<ellipse cx="94.6155" cy="144.008" rx="9.94265" ry="11.867" fill="black"/>
<ellipse cx="64.1463" cy="111.935" rx="7.69754" ry="6.09388" fill="#4E3D22"/>
<ellipse cx="125.085" cy="111.935" rx="7.69754" ry="6.09388" fill="#4E3D22"/>
</svg>
