<svg width="29" height="37" viewBox="0 0 29 37" fill="none" xmlns="http://www.w3.org/2000/svg">
<path fill-rule="evenodd" clip-rule="evenodd" d="M20.0888 5.27805C20.3042 4.45548 20.7378 3.70954 21.3418 3.12234C21.9458 2.53515 22.6968 2.12948 23.5121 1.95C24.3275 1.77052 25.1755 1.82419 25.9629 2.1051C26.7503 2.38601 27.4464 2.88327 27.9748 3.54213C28.5031 4.20098 28.8431 4.99588 28.9573 5.83931C29.0715 6.68274 28.9555 7.54199 28.6221 8.32245C28.2887 9.10291 27.7508 9.77432 27.0676 10.2627C26.3844 10.7512 25.5824 11.0377 24.75 11.0907C25.1628 12.2819 25.373 13.5364 25.3716 14.8V25.9H27.1838C28.1806 25.9 28.9961 26.7325 28.9961 27.75C28.9961 28.7675 28.1806 29.6 27.1838 29.6H19.9348V31.45C19.9348 32.922 19.362 34.3336 18.3424 35.3744C17.3228 36.4153 15.94 37 14.498 37C13.0561 37 11.6733 36.4153 10.6537 35.3744C9.63407 34.3336 9.06127 32.922 9.06127 31.45V29.6H1.81225C0.815514 29.6 0 28.7675 0 27.75C0 26.7325 0.815514 25.9 1.81225 25.9H3.62451V14.8C3.62484 12.1768 4.53496 9.63834 6.19356 7.63467C7.85216 5.631 10.1521 4.29149 12.6858 3.85355V1.85C12.6858 1.35935 12.8767 0.888795 13.2166 0.541852C13.5564 0.19491 14.0174 0 14.498 0C14.9787 0 15.4396 0.19491 15.7795 0.541852C16.1194 0.888795 16.3103 1.35935 16.3103 1.85V3.85355C17.6462 4.08236 18.9279 4.56559 20.0888 5.27805ZM14.498 33.3C14.9787 33.3 15.4396 33.1051 15.7795 32.7581C16.1194 32.4112 16.3103 31.9407 16.3103 31.45V29.6H12.6858V31.45C12.6858 31.9407 12.8767 32.4112 13.2166 32.7581C13.5564 33.1051 14.0174 33.3 14.498 33.3ZM7.24902 25.9H21.7471V14.8C21.747 12.8374 20.9833 10.9552 19.6239 9.56741C18.2644 8.17964 16.4206 7.4 14.498 7.4C12.5755 7.4 10.7317 8.17964 9.3722 9.56741C8.01275 10.9552 7.24902 12.8374 7.24902 14.8V25.9Z" fill="black"/>
</svg>
