<svg width="32" height="32" viewBox="0 0 32 32" fill="none" xmlns="http://www.w3.org/2000/svg">
<path d="M16 16C13.8917 16 12.0868 15.2493 10.5854 13.7479C9.08405 12.2465 8.33335 10.4417 8.33335 8.33332C8.33335 6.22499 9.08405 4.42013 10.5854 2.91874C12.0868 1.41735 13.8917 0.666656 16 0.666656C18.1084 0.666656 19.9132 1.41735 21.4146 2.91874C22.916 4.42013 23.6667 6.22499 23.6667 8.33332C23.6667 10.4417 22.916 12.2465 21.4146 13.7479C19.9132 15.2493 18.1084 16 16 16ZM0.666687 31.3333V25.9667C0.666687 24.8805 0.946521 23.8826 1.50619 22.9728C2.06585 22.063 2.80824 21.3679 3.73335 20.8875C5.71391 19.8972 7.72641 19.1548 9.77085 18.6603C11.8153 18.1658 13.8917 17.9179 16 17.9167C18.1084 17.9167 20.1847 18.1645 22.2292 18.6603C24.2736 19.1561 26.2861 19.8985 28.2667 20.8875C29.1931 21.3667 29.9361 22.0618 30.4958 22.9728C31.0554 23.8839 31.3346 24.8818 31.3334 25.9667V31.3333H0.666687Z" fill="black"/>
</svg>
