<svg width="22" height="22" viewBox="0 0 22 22" fill="none" xmlns="http://www.w3.org/2000/svg">
<path d="M18.2415 2.11476C18.2091 2.03171 18.1524 1.96036 18.0788 1.91006C18.0052 1.85977 17.9181 1.83286 17.829 1.83286C17.7398 1.83286 17.6528 1.85977 17.5792 1.91006C17.5056 1.96036 17.4489 2.03171 17.4165 2.11476L17.0223 3.11851C17.0002 3.17524 16.9667 3.22682 16.9238 3.27003C16.8809 3.31324 16.8296 3.34716 16.773 3.36968L15.7729 3.76568C15.6901 3.79866 15.6191 3.85574 15.569 3.92952C15.519 4.00331 15.4923 4.0904 15.4923 4.17955C15.4923 4.2687 15.519 4.35579 15.569 4.42958C15.6191 4.50336 15.6901 4.56044 15.7729 4.59343L16.773 4.98943C16.8296 5.01165 16.881 5.04536 16.9239 5.08843C16.9668 5.1315 17.0003 5.183 17.0223 5.23968L17.4165 6.24251C17.565 6.61834 18.0948 6.61834 18.2415 6.24251L18.6357 5.23876C18.658 5.18211 18.6917 5.13065 18.7347 5.0876C18.7778 5.04455 18.8293 5.01082 18.8859 4.98851L19.886 4.59251C19.9688 4.55952 20.0398 4.50244 20.0899 4.42866C20.1399 4.35488 20.1666 4.26778 20.1666 4.17863C20.1666 4.08949 20.1399 4.00239 20.0899 3.92861C20.0398 3.85482 19.9688 3.79775 19.886 3.76476L18.8859 3.36876C18.8292 3.34635 18.7777 3.31248 18.7346 3.26926C18.6915 3.22605 18.6579 3.17441 18.6357 3.11759L18.2415 2.11476ZM14.6967 7.45251C14.6644 7.36946 14.6076 7.29811 14.534 7.24781C14.4604 7.19752 14.3734 7.17061 14.2842 7.17061C14.1951 7.17061 14.108 7.19752 14.0344 7.24781C13.9608 7.29811 13.9041 7.36946 13.8717 7.45251L13.7278 7.81826C13.7056 7.87482 13.672 7.92622 13.6291 7.96927C13.5862 8.01232 13.535 8.0461 13.4785 8.06851L13.1137 8.21334C13.0308 8.24633 12.9598 8.30341 12.9098 8.37719C12.8598 8.45097 12.833 8.53807 12.833 8.62722C12.833 8.71636 12.8598 8.80346 12.9098 8.87725C12.9598 8.95103 13.0308 9.0081 13.1137 9.04109L13.4785 9.18501C13.5931 9.23084 13.6829 9.32068 13.7278 9.43618L13.8717 9.80193C14.0193 10.1778 14.5492 10.1778 14.6967 9.80193L14.8407 9.43526C14.8629 9.3787 14.8964 9.3273 14.9393 9.28425C14.9822 9.2412 15.0335 9.20742 15.09 9.18501L15.4548 9.04109C15.5376 9.0081 15.6087 8.95103 15.6587 8.87725C15.7087 8.80346 15.7355 8.71636 15.7355 8.62722C15.7355 8.53807 15.7087 8.45097 15.6587 8.37719C15.6087 8.30341 15.5376 8.24633 15.4548 8.21334L15.09 8.06851C15.0335 8.0461 14.9822 8.01232 14.9393 7.96927C14.8964 7.92622 14.8629 7.87482 14.8407 7.81826L14.6967 7.45251Z" stroke="#ffffff"/>
<path d="M19.4791 11C19.4791 13.2488 18.5857 15.4055 16.9956 16.9957C15.4054 18.5858 13.2487 19.4792 10.9999 19.4792V20.8542C16.4422 20.8542 20.8541 16.4423 20.8541 11H19.4791ZM10.9999 19.4792C8.7511 19.4792 6.59439 18.5858 5.00424 16.9957C3.41409 15.4055 2.52075 13.2488 2.52075 11H1.14575C1.14575 16.4423 5.55767 20.8542 10.9999 20.8542V19.4792ZM2.52075 11C2.52075 8.7512 3.41409 6.59449 5.00424 5.00433C6.59439 3.41418 8.7511 2.52084 10.9999 2.52084V1.14584C5.55767 1.14584 1.14575 5.55776 1.14575 11H2.52075ZM14.2083 13.0625C12.8103 13.0625 11.4697 12.5072 10.4812 11.5187C9.49274 10.5302 8.93742 9.18959 8.93742 7.79168H7.56242C7.56242 9.55426 8.2626 11.2447 9.50894 12.491C10.7553 13.7373 12.4457 14.4375 14.2083 14.4375V13.0625ZM18.7228 10.5133C18.2541 11.2914 17.592 11.9351 16.8009 12.3818C16.0099 12.8285 15.1167 13.063 14.2083 13.0625V14.4375C15.3536 14.4381 16.4796 14.1426 17.477 13.5796C18.4744 13.0167 19.3094 12.2054 19.9008 11.2246L18.7228 10.5133ZM8.93742 7.79168C8.93702 6.88323 9.17155 5.99012 9.61823 5.19908C10.0649 4.40803 10.7086 3.74594 11.4867 3.27709L10.7753 2.10009C9.79458 2.69133 8.98335 3.5261 8.42039 4.52336C7.85744 5.52062 7.56188 6.64649 7.56242 7.79168H8.93742ZM10.9999 2.52084C10.907 2.51865 10.8186 2.47977 10.7543 2.41268C10.7149 2.37439 10.6886 2.32468 10.6791 2.27059C10.6754 2.24218 10.6773 2.15968 10.7753 2.10009L11.4867 3.27709C11.9478 2.99843 12.0963 2.48784 12.0422 2.08634C11.9853 1.66926 11.6572 1.14584 10.9999 1.14584V2.52084ZM19.9008 11.2246C19.8403 11.3227 19.7578 11.3245 19.7293 11.3208C19.6753 11.3113 19.6255 11.285 19.5873 11.2457C19.5202 11.1813 19.4813 11.093 19.4791 11H20.8541C20.8541 10.3428 20.3307 10.0146 19.9136 9.95776C19.5121 9.90368 19.0015 10.0522 18.7228 10.5133L19.9008 11.2246Z" fill="#ffffff"/>
</svg>
