<svg width="13" height="10" viewBox="0 0 13 10" fill="none" xmlns="http://www.w3.org/2000/svg">
<path d="M11.2059 1.33333H9.51235L8.67647 0.148334C8.64419 0.102632 8.60044 0.065176 8.54913 0.039297C8.49781 0.0134181 8.44052 -8.10678e-05 8.38235 3.66263e-07H4.61765C4.55948 -8.10678e-05 4.50219 0.0134181 4.45087 0.039297C4.39956 0.065176 4.35581 0.102632 4.32353 0.148334L3.48706 1.33333H1.79412C1.4509 1.33333 1.12173 1.4621 0.879038 1.69131C0.636344 1.92053 0.5 2.2314 0.5 2.55556V8.77778C0.5 9.10193 0.636344 9.41281 0.879038 9.64202C1.12173 9.87123 1.4509 10 1.79412 10H11.2059C11.5491 10 11.8783 9.87123 12.121 9.64202C12.3637 9.41281 12.5 9.10193 12.5 8.77778V2.55556C12.5 2.2314 12.3637 1.92053 12.121 1.69131C11.8783 1.4621 11.5491 1.33333 11.2059 1.33333ZM11.7941 8.77778C11.7941 8.92512 11.7321 9.06643 11.6218 9.17062C11.5115 9.2748 11.3619 9.33333 11.2059 9.33333H1.79412C1.63811 9.33333 1.48849 9.2748 1.37817 9.17062C1.26786 9.06643 1.20588 8.92512 1.20588 8.77778V2.55556C1.20588 2.40821 1.26786 2.26691 1.37817 2.16272C1.48849 2.05853 1.63811 2 1.79412 2H3.67647C3.73464 2.00008 3.79193 1.98658 3.84325 1.9607C3.89456 1.93482 3.9383 1.89737 3.97059 1.85167L4.80647 0.666667H8.19294L9.02941 1.85167C9.0617 1.89737 9.10544 1.93482 9.15675 1.9607C9.20807 1.98658 9.26536 2.00008 9.32353 2H11.2059C11.3619 2 11.5115 2.05853 11.6218 2.16272C11.7321 2.26691 11.7941 2.40821 11.7941 2.55556V8.77778ZM6.5 3.11111C6.01136 3.11111 5.5337 3.24796 5.12742 3.50435C4.72113 3.76074 4.40447 4.12516 4.21747 4.55152C4.03048 4.97788 3.98156 5.44703 4.07688 5.89966C4.17221 6.35228 4.40751 6.76804 4.75303 7.09436C5.09855 7.42068 5.53876 7.64291 6.01801 7.73294C6.49726 7.82298 6.99401 7.77677 7.44545 7.60016C7.89689 7.42356 8.28275 7.12449 8.55422 6.74078C8.82569 6.35706 8.97059 5.90593 8.97059 5.44444C8.97059 4.82561 8.71029 4.23211 8.24697 3.79453C7.78364 3.35694 7.15524 3.11111 6.5 3.11111ZM6.5 7.11111C6.15097 7.11111 5.80979 7.01336 5.51958 6.83023C5.22938 6.64709 5.00319 6.38679 4.86962 6.08225C4.73606 5.77771 4.70111 5.4426 4.7692 5.11929C4.83729 4.79599 5.00537 4.49902 5.25216 4.26593C5.49896 4.03285 5.8134 3.87411 6.15572 3.8098C6.49804 3.74549 6.85287 3.7785 7.17532 3.90465C7.49778 4.03079 7.77339 4.24441 7.9673 4.51849C8.16121 4.79258 8.26471 5.11481 8.26471 5.44444C8.26471 5.88647 8.07878 6.3104 7.74784 6.62296C7.41689 6.93552 6.96803 7.11111 6.5 7.11111Z" fill="white"/>
</svg>
