<svg width="140" height="24" viewBox="0 0 140 24" fill="none" xmlns="http://www.w3.org/2000/svg">
<path d="M12 0L14.5819 8.2918H22.9371L16.1776 13.4164L18.7595 21.7082L12 16.5836L5.24047 21.7082L7.82238 13.4164L1.06285 8.2918H9.41809L12 0Z" fill="#5A38C3"/>
<path d="M41 0L43.5819 8.2918H51.9371L45.1776 13.4164L47.7595 21.7082L41 16.5836L34.2405 21.7082L36.8224 13.4164L30.0628 8.2918H38.4181L41 0Z" fill="#5A38C3"/>
<path d="M70 0L72.5819 8.2918H80.9371L74.1776 13.4164L76.7595 21.7082L70 16.5836L63.2405 21.7082L65.8224 13.4164L59.0628 8.2918H67.4181L70 0Z" fill="#5A38C3"/>
<path d="M99 0L101.582 8.2918H109.937L103.178 13.4164L105.76 21.7082L99 16.5836L92.2405 21.7082L94.8224 13.4164L88.0628 8.2918H96.4181L99 0Z" fill="#5A38C3"/>
<path d="M128 0L130.582 8.2918H138.937L132.178 13.4164L134.76 21.7082L128 16.5836L121.24 21.7082L123.822 13.4164L117.063 8.2918H125.418L128 0Z" fill="#5A38C3"/>
</svg>
