<svg width="42" height="25" viewBox="0 0 42 25" fill="none" xmlns="http://www.w3.org/2000/svg">
<path d="M40.4787 1.69299C40.7681 0.716267 40.4787 0 39.11 0H34.5761C33.4225 0 32.8953 0.619645 32.6058 1.3002C32.6058 1.3002 30.3006 7.01143 27.034 10.7146C25.9796 11.7921 25.4979 12.1324 24.9232 12.1324C24.6358 12.1324 24.2182 11.7921 24.2182 10.8154V1.69299C24.2182 0.520921 23.8853 0 22.9239 0H15.7995C15.08 0 14.6458 0.541926 14.6458 1.05865C14.6458 2.1677 16.2791 2.42396 16.4466 5.54949V12.3299C16.4466 13.8149 16.184 14.0859 15.6051 14.0859C14.069 14.0859 10.3311 8.35364 8.11269 1.79172C7.68059 0.51672 7.24436 0.00210134 6.08659 0.00210134H1.55473C0.258432 0.00210134 0 0.621745 0 1.3023C0 2.52479 1.53612 8.57419 7.15546 16.5749C10.9017 22.0383 16.1758 25 20.9805 25C23.8605 25 24.2161 24.3425 24.2161 23.2083V19.0787C24.2161 17.7638 24.4911 17.4992 25.4028 17.4992C26.0727 17.4992 27.2263 17.8436 29.9161 20.4755C32.9883 23.5969 33.4969 24.9979 35.2232 24.9979H39.7551C41.0493 24.9979 41.6964 24.3404 41.3243 23.0423C40.917 21.7505 39.4491 19.8706 37.5016 17.6462C36.443 16.3775 34.8614 15.0122 34.3797 14.3295C33.7078 13.4494 33.9021 13.0608 34.3797 12.2794C34.3818 12.2816 39.9039 4.37952 40.4787 1.69299Z" fill="#A9A9A9"/>
</svg>
