<svg width="753" height="1250" viewBox="0 0 753 1250" fill="none" xmlns="http://www.w3.org/2000/svg">
<path d="M120.555 32H611.403C641.55 32 670.165 45.2821 689.625 68.3072V68.3072C720.767 105.155 721.971 158.739 692.515 196.948L690.759 199.226C670.694 225.254 639.689 240.5 606.825 240.5H122.125C77.1464 240.5 38.2754 271.991 28.8823 315.978V315.978C25.9975 329.487 26.0899 343.477 29.1589 356.946V356.946C39.0108 400.182 77.4589 430.855 121.803 430.855H629.96C659.09 430.855 686.672 443.972 705.055 466.568V466.568C733.202 501.165 734.07 550.515 707.156 586.081L705.868 587.783C687.055 612.644 657.68 627.252 626.503 627.252H118.859C92.5351 627.252 67.4509 638.436 49.8567 658.016V658.016C20.7414 690.417 18.0924 738.713 43.4891 774.104L47.3057 779.423C66.2599 805.836 96.7792 821.5 129.29 821.5H608.985C640.457 821.5 670.118 836.22 689.151 861.285L694.391 868.186C722.146 904.737 718.287 956.248 685.395 988.256V988.256C668.432 1004.76 645.696 1014 622.026 1014H175.596C141.07 1014 108.684 1030.73 88.7037 1058.89L86.2421 1062.36C60.5575 1098.55 61.5687 1147.29 88.7326 1182.39V1182.39C107.824 1207.06 137.261 1221.5 168.454 1221.5H516" stroke="#4A1757" stroke-width="5" stroke-dasharray="20 20"/>
<circle cx="715.5" cy="132.5" r="9.5" fill="#4A1757"/>
<circle cx="27.5" cy="335.5" r="9.5" fill="#4A1757"/>
<circle cx="728.5" cy="525.5" r="9.5" fill="#4A1757"/>
<circle cx="713.5" cy="929.5" r="9.5" fill="#4A1757"/>
<circle cx="87.5" cy="1061.5" r="9.5" fill="#4A1757"/>

    <circle cx="122" cy="32" r="29.5" stroke="#644C8B" stroke-width="5"/>
<circle cx="122" cy="32" r="23" fill="#A781DA"/>
<circle cx="288" cy="32" r="23" fill="#A781DA"/>
<path d="M286.94 39V26.2L288.34 27.6H284.14V25H290.18V39H286.94Z" fill="#4A1757"/>
<circle cx="454" cy="32" r="23" fill="#A781DA"/>
<path d="M448.66 39V36.9L454.06 31.8C454.487 31.4133 454.8 31.0667 455 30.76C455.2 30.4533 455.333 30.1733 455.4 29.92C455.48 29.6667 455.52 29.4333 455.52 29.22C455.52 28.66 455.327 28.2333 454.94 27.94C454.567 27.6333 454.013 27.48 453.28 27.48C452.693 27.48 452.147 27.5933 451.64 27.82C451.147 28.0467 450.727 28.4 450.38 28.88L448.02 27.36C448.553 26.56 449.3 25.9267 450.26 25.46C451.22 24.9933 452.327 24.76 453.58 24.76C454.62 24.76 455.527 24.9333 456.3 25.28C457.087 25.6133 457.693 26.0867 458.12 26.7C458.56 27.3133 458.78 28.0467 458.78 28.9C458.78 29.3533 458.72 29.8067 458.6 30.26C458.493 30.7 458.267 31.1667 457.92 31.66C457.587 32.1533 457.093 32.7067 456.44 33.32L451.96 37.54L451.34 36.36H459.24V39H448.66Z" fill="#4A1757"/>
<circle cx="620" cy="32" r="23" fill="#A781DA"/>
<path d="M619.32 39.24C618.347 39.24 617.38 39.1133 616.42 38.86C615.46 38.5933 614.647 38.22 613.98 37.74L615.24 35.26C615.773 35.6467 616.393 35.9533 617.1 36.18C617.807 36.4067 618.52 36.52 619.24 36.52C620.053 36.52 620.693 36.36 621.16 36.04C621.627 35.72 621.86 35.28 621.86 34.72C621.86 34.1867 621.653 33.7667 621.24 33.46C620.827 33.1533 620.16 33 619.24 33H617.76V30.86L621.66 26.44L622.02 27.6H614.68V25H624.48V27.1L620.6 31.52L618.96 30.58H619.9C621.62 30.58 622.92 30.9667 623.8 31.74C624.68 32.5133 625.12 33.5067 625.12 34.72C625.12 35.5067 624.913 36.2467 624.5 36.94C624.087 37.62 623.453 38.1733 622.6 38.6C621.747 39.0267 620.653 39.24 619.32 39.24Z" fill="#4A1757"/>
<circle cx="367" cy="237" r="23" fill="#A781DA"/>
<path d="M366.54 244.24C365.567 244.24 364.6 244.113 363.64 243.86C362.693 243.593 361.88 243.22 361.2 242.74L362.48 240.26C363.013 240.647 363.627 240.953 364.32 241.18C365.027 241.407 365.74 241.52 366.46 241.52C367.273 241.52 367.913 241.36 368.38 241.04C368.847 240.72 369.08 240.273 369.08 239.7C369.08 239.34 368.987 239.02 368.8 238.74C368.613 238.46 368.28 238.247 367.8 238.1C367.333 237.953 366.673 237.88 365.82 237.88H362.24L362.96 230H371.5V232.6H364.12L365.8 231.12L365.3 236.74L363.62 235.26H366.58C367.967 235.26 369.08 235.453 369.92 235.84C370.773 236.213 371.393 236.727 371.78 237.38C372.167 238.033 372.36 238.773 372.36 239.6C372.36 240.427 372.153 241.193 371.74 241.9C371.327 242.593 370.687 243.16 369.82 243.6C368.967 244.027 367.873 244.24 366.54 244.24Z" fill="#4A1757"/>
<circle cx="533" cy="237" r="23" fill="#A781DA"/>
<path d="M526.62 241.06V238.88L533.22 230H536.62L530.16 238.88L528.58 238.42H539.6V241.06H526.62ZM534.16 244V241.06L534.26 238.42V235.8H537.32V244H534.16Z" fill="#4A1757"/>
<circle cx="201" cy="237" r="23" fill="#A781DA"/>
<path d="M202.04 244.24C200.76 244.24 199.647 243.973 198.7 243.44C197.767 242.907 197.047 242.127 196.54 241.1C196.033 240.073 195.78 238.807 195.78 237.3C195.78 235.687 196.08 234.32 196.68 233.2C197.293 232.08 198.133 231.227 199.2 230.64C200.28 230.053 201.52 229.76 202.92 229.76C203.667 229.76 204.38 229.84 205.06 230C205.74 230.16 206.327 230.4 206.82 230.72L205.62 233.1C205.233 232.833 204.82 232.653 204.38 232.56C203.94 232.453 203.48 232.4 203 232.4C201.787 232.4 200.827 232.767 200.12 233.5C199.413 234.233 199.06 235.32 199.06 236.76C199.06 237 199.06 237.267 199.06 237.56C199.073 237.853 199.113 238.147 199.18 238.44L198.28 237.6C198.533 237.08 198.86 236.647 199.26 236.3C199.66 235.94 200.133 235.673 200.68 235.5C201.24 235.313 201.853 235.22 202.52 235.22C203.427 235.22 204.24 235.4 204.96 235.76C205.68 236.12 206.253 236.627 206.68 237.28C207.12 237.933 207.34 238.7 207.34 239.58C207.34 240.527 207.1 241.353 206.62 242.06C206.153 242.753 205.52 243.293 204.72 243.68C203.933 244.053 203.04 244.24 202.04 244.24ZM201.86 241.82C202.313 241.82 202.713 241.74 203.06 241.58C203.42 241.407 203.7 241.16 203.9 240.84C204.1 240.52 204.2 240.153 204.2 239.74C204.2 239.1 203.98 238.593 203.54 238.22C203.113 237.833 202.54 237.64 201.82 237.64C201.34 237.64 200.92 237.733 200.56 237.92C200.2 238.093 199.913 238.34 199.7 238.66C199.5 238.967 199.4 239.327 199.4 239.74C199.4 240.14 199.5 240.5 199.7 240.82C199.9 241.127 200.18 241.373 200.54 241.56C200.9 241.733 201.34 241.82 201.86 241.82Z" fill="#4A1757"/>
<circle cx="118" cy="431" r="23" fill="#A781DA"/>
<path d="M115.02 438L120.66 425.24L121.5 426.64H113.96L115.4 425.12V428.92H112.52V424H123.74V426.1L118.54 438H115.02Z" fill="#4A1757"/>
<circle cx="284" cy="431" r="23" fill="#A781DA"/>
<path d="M283.58 438.24C282.407 438.24 281.38 438.067 280.5 437.72C279.62 437.36 278.933 436.86 278.44 436.22C277.947 435.567 277.7 434.807 277.7 433.94C277.7 433.073 277.94 432.34 278.42 431.74C278.913 431.127 279.6 430.667 280.48 430.36C281.36 430.04 282.393 429.88 283.58 429.88C284.78 429.88 285.82 430.04 286.7 430.36C287.593 430.667 288.28 431.127 288.76 431.74C289.253 432.34 289.5 433.073 289.5 433.94C289.5 434.807 289.253 435.567 288.76 436.22C288.267 436.86 287.573 437.36 286.68 437.72C285.8 438.067 284.767 438.24 283.58 438.24ZM283.58 435.86C284.393 435.86 285.033 435.68 285.5 435.32C285.98 434.96 286.22 434.467 286.22 433.84C286.22 433.213 285.98 432.727 285.5 432.38C285.033 432.02 284.393 431.84 283.58 431.84C282.78 431.84 282.147 432.02 281.68 432.38C281.213 432.727 280.98 433.213 280.98 433.84C280.98 434.467 281.213 434.96 281.68 435.32C282.147 435.68 282.78 435.86 283.58 435.86ZM283.58 431.52C282.5 431.52 281.553 431.373 280.74 431.08C279.94 430.787 279.313 430.36 278.86 429.8C278.42 429.227 278.2 428.547 278.2 427.76C278.2 426.933 278.427 426.227 278.88 425.64C279.333 425.04 279.967 424.58 280.78 424.26C281.593 423.927 282.527 423.76 283.58 423.76C284.66 423.76 285.6 423.927 286.4 424.26C287.213 424.58 287.847 425.04 288.3 425.64C288.767 426.227 289 426.933 289 427.76C289 428.547 288.773 429.227 288.32 429.8C287.88 430.36 287.253 430.787 286.44 431.08C285.627 431.373 284.673 431.52 283.58 431.52ZM283.58 429.62C284.26 429.62 284.793 429.467 285.18 429.16C285.58 428.853 285.78 428.433 285.78 427.9C285.78 427.34 285.573 426.907 285.16 426.6C284.76 426.293 284.233 426.14 283.58 426.14C282.94 426.14 282.42 426.293 282.02 426.6C281.62 426.907 281.42 427.34 281.42 427.9C281.42 428.433 281.613 428.853 282 429.16C282.387 429.467 282.913 429.62 283.58 429.62Z" fill="#4A1757"/>
<circle cx="450" cy="431" r="23" fill="#A781DA"/>
<path d="M449.7 423.76C450.993 423.76 452.107 424.027 453.04 424.56C453.973 425.093 454.693 425.873 455.2 426.9C455.707 427.913 455.96 429.18 455.96 430.7C455.96 432.313 455.653 433.68 455.04 434.8C454.44 435.92 453.607 436.773 452.54 437.36C451.473 437.947 450.233 438.24 448.82 438.24C448.087 438.24 447.38 438.16 446.7 438C446.02 437.84 445.433 437.6 444.94 437.28L446.14 434.9C446.527 435.167 446.94 435.353 447.38 435.46C447.82 435.553 448.28 435.6 448.76 435.6C449.96 435.6 450.913 435.233 451.62 434.5C452.34 433.767 452.7 432.68 452.7 431.24C452.7 431 452.693 430.733 452.68 430.44C452.667 430.147 452.633 429.853 452.58 429.56L453.46 430.4C453.233 430.92 452.913 431.36 452.5 431.72C452.087 432.067 451.607 432.333 451.06 432.52C450.513 432.693 449.9 432.78 449.22 432.78C448.327 432.78 447.513 432.6 446.78 432.24C446.06 431.88 445.48 431.373 445.04 430.72C444.613 430.067 444.4 429.3 444.4 428.42C444.4 427.46 444.633 426.633 445.1 425.94C445.58 425.247 446.22 424.713 447.02 424.34C447.833 423.953 448.727 423.76 449.7 423.76ZM449.9 426.18C449.433 426.18 449.027 426.267 448.68 426.44C448.333 426.6 448.06 426.84 447.86 427.16C447.66 427.467 447.56 427.833 447.56 428.26C447.56 428.9 447.773 429.413 448.2 429.8C448.64 430.173 449.22 430.36 449.94 430.36C450.407 430.36 450.82 430.273 451.18 430.1C451.553 429.913 451.84 429.66 452.04 429.34C452.24 429.02 452.34 428.66 452.34 428.26C452.34 427.86 452.24 427.507 452.04 427.2C451.853 426.88 451.58 426.633 451.22 426.46C450.86 426.273 450.42 426.18 449.9 426.18Z" fill="#4A1757"/>
<circle cx="616" cy="431" r="23" fill="#A781DA"/>
<path d="M607.94 438V425.2L609.34 426.6H605.14V424H611.18V438H607.94ZM619.612 438.24C618.465 438.24 617.439 437.96 616.532 437.4C615.625 436.827 614.912 436 614.392 434.92C613.872 433.84 613.612 432.533 613.612 431C613.612 429.467 613.872 428.16 614.392 427.08C614.912 426 615.625 425.18 616.532 424.62C617.439 424.047 618.465 423.76 619.612 423.76C620.772 423.76 621.799 424.047 622.692 424.62C623.599 425.18 624.312 426 624.832 427.08C625.352 428.16 625.612 429.467 625.612 431C625.612 432.533 625.352 433.84 624.832 434.92C624.312 436 623.599 436.827 622.692 437.4C621.799 437.96 620.772 438.24 619.612 438.24ZM619.612 435.5C620.159 435.5 620.632 435.347 621.032 435.04C621.445 434.733 621.765 434.247 621.992 433.58C622.232 432.913 622.352 432.053 622.352 431C622.352 429.947 622.232 429.087 621.992 428.42C621.765 427.753 621.445 427.267 621.032 426.96C620.632 426.653 620.159 426.5 619.612 426.5C619.079 426.5 618.605 426.653 618.192 426.96C617.792 427.267 617.472 427.753 617.232 428.42C617.005 429.087 616.892 429.947 616.892 431C616.892 432.053 617.005 432.913 617.232 433.58C617.472 434.247 617.792 434.733 618.192 435.04C618.605 435.347 619.079 435.5 619.612 435.5Z" fill="#4A1757"/>
<circle cx="284" cy="626" r="23" fill="#A781DA"/>
<path d="M276.94 633V620.2L278.34 621.6H274.14V619H280.18V633H276.94ZM287.152 633.24C286.179 633.24 285.212 633.113 284.252 632.86C283.292 632.593 282.479 632.22 281.812 631.74L283.072 629.26C283.605 629.647 284.225 629.953 284.932 630.18C285.639 630.407 286.352 630.52 287.072 630.52C287.885 630.52 288.525 630.36 288.992 630.04C289.459 629.72 289.692 629.28 289.692 628.72C289.692 628.187 289.485 627.767 289.072 627.46C288.659 627.153 287.992 627 287.072 627H285.592V624.86L289.492 620.44L289.852 621.6H282.512V619H292.312V621.1L288.432 625.52L286.792 624.58H287.732C289.452 624.58 290.752 624.967 291.632 625.74C292.512 626.513 292.952 627.507 292.952 628.72C292.952 629.507 292.745 630.247 292.332 630.94C291.919 631.62 291.285 632.173 290.432 632.6C289.579 633.027 288.485 633.24 287.152 633.24Z" fill="#4A1757"/>
<circle cx="616" cy="626" r="23" fill="#A781DA"/>
<path d="M610.94 633V620.2L612.34 621.6H608.14V619H614.18V633H610.94ZM618.772 633V620.2L620.172 621.6H615.972V619H622.012V633H618.772Z" fill="#4A1757"/>
<circle cx="450" cy="626" r="23" fill="#A781DA"/>
<path d="M442.94 633V620.2L444.34 621.6H440.14V619H446.18V633H442.94ZM448.492 633V630.9L453.892 625.8C454.319 625.413 454.632 625.067 454.832 624.76C455.032 624.453 455.165 624.173 455.232 623.92C455.312 623.667 455.352 623.433 455.352 623.22C455.352 622.66 455.159 622.233 454.772 621.94C454.399 621.633 453.845 621.48 453.112 621.48C452.525 621.48 451.979 621.593 451.472 621.82C450.979 622.047 450.559 622.4 450.212 622.88L447.852 621.36C448.385 620.56 449.132 619.927 450.092 619.46C451.052 618.993 452.159 618.76 453.412 618.76C454.452 618.76 455.359 618.933 456.132 619.28C456.919 619.613 457.525 620.087 457.952 620.7C458.392 621.313 458.612 622.047 458.612 622.9C458.612 623.353 458.552 623.807 458.432 624.26C458.325 624.7 458.099 625.167 457.752 625.66C457.419 626.153 456.925 626.707 456.272 627.32L451.792 631.54L451.172 630.36H459.072V633H448.492Z" fill="#4A1757"/>
<circle cx="118" cy="626" r="23" fill="#A781DA"/>
<path d="M109.94 633V620.2L111.34 621.6H107.14V619H113.18V633H109.94ZM115.452 630.06V627.88L122.052 619H125.452L118.992 627.88L117.412 627.42H128.432V630.06H115.452ZM122.992 633V630.06L123.092 627.42V624.8H126.152V633H122.992Z" fill="#4A1757"/>
<circle cx="450" cy="821" r="23" fill="#A781DA"/>
<path d="M443.94 828V815.2L445.34 816.6H441.14V814H447.18V828H443.94ZM451.852 828L457.492 815.24L458.332 816.64H450.792L452.232 815.12V818.92H449.352V814H460.572V816.1L455.372 828H451.852Z" fill="#4A1757"/>
<circle cx="616" cy="821" r="23" fill="#A781DA"/>
<path d="M609.94 829V816.2L611.34 817.6H607.14V815H613.18V829H609.94ZM621.412 829.24C620.239 829.24 619.212 829.067 618.332 828.72C617.452 828.36 616.765 827.86 616.272 827.22C615.779 826.567 615.532 825.807 615.532 824.94C615.532 824.073 615.772 823.34 616.252 822.74C616.745 822.127 617.432 821.667 618.312 821.36C619.192 821.04 620.225 820.88 621.412 820.88C622.612 820.88 623.652 821.04 624.532 821.36C625.425 821.667 626.112 822.127 626.592 822.74C627.085 823.34 627.332 824.073 627.332 824.94C627.332 825.807 627.085 826.567 626.592 827.22C626.099 827.86 625.405 828.36 624.512 828.72C623.632 829.067 622.599 829.24 621.412 829.24ZM621.412 826.86C622.225 826.86 622.865 826.68 623.332 826.32C623.812 825.96 624.052 825.467 624.052 824.84C624.052 824.213 623.812 823.727 623.332 823.38C622.865 823.02 622.225 822.84 621.412 822.84C620.612 822.84 619.979 823.02 619.512 823.38C619.045 823.727 618.812 824.213 618.812 824.84C618.812 825.467 619.045 825.96 619.512 826.32C619.979 826.68 620.612 826.86 621.412 826.86ZM621.412 822.52C620.332 822.52 619.385 822.373 618.572 822.08C617.772 821.787 617.145 821.36 616.692 820.8C616.252 820.227 616.032 819.547 616.032 818.76C616.032 817.933 616.259 817.227 616.712 816.64C617.165 816.04 617.799 815.58 618.612 815.26C619.425 814.927 620.359 814.76 621.412 814.76C622.492 814.76 623.432 814.927 624.232 815.26C625.045 815.58 625.679 816.04 626.132 816.64C626.599 817.227 626.832 817.933 626.832 818.76C626.832 819.547 626.605 820.227 626.152 820.8C625.712 821.36 625.085 821.787 624.272 822.08C623.459 822.373 622.505 822.52 621.412 822.52ZM621.412 820.62C622.092 820.62 622.625 820.467 623.012 820.16C623.412 819.853 623.612 819.433 623.612 818.9C623.612 818.34 623.405 817.907 622.992 817.6C622.592 817.293 622.065 817.14 621.412 817.14C620.772 817.14 620.252 817.293 619.852 817.6C619.452 817.907 619.252 818.34 619.252 818.9C619.252 819.433 619.445 819.853 619.832 820.16C620.219 820.467 620.745 820.62 621.412 820.62Z" fill="#4A1757"/>
<circle cx="284" cy="821" r="23" fill="#A781DA"/>
<path d="M276.94 829V816.2L278.34 817.6H274.14V815H280.18V829H276.94ZM288.872 829.24C287.592 829.24 286.479 828.973 285.532 828.44C284.599 827.907 283.879 827.127 283.372 826.1C282.865 825.073 282.612 823.807 282.612 822.3C282.612 820.687 282.912 819.32 283.512 818.2C284.125 817.08 284.965 816.227 286.032 815.64C287.112 815.053 288.352 814.76 289.752 814.76C290.499 814.76 291.212 814.84 291.892 815C292.572 815.16 293.159 815.4 293.652 815.72L292.452 818.1C292.065 817.833 291.652 817.653 291.212 817.56C290.772 817.453 290.312 817.4 289.832 817.4C288.619 817.4 287.659 817.767 286.952 818.5C286.245 819.233 285.892 820.32 285.892 821.76C285.892 822 285.892 822.267 285.892 822.56C285.905 822.853 285.945 823.147 286.012 823.44L285.112 822.6C285.365 822.08 285.692 821.647 286.092 821.3C286.492 820.94 286.965 820.673 287.512 820.5C288.072 820.313 288.685 820.22 289.352 820.22C290.259 820.22 291.072 820.4 291.792 820.76C292.512 821.12 293.085 821.627 293.512 822.28C293.952 822.933 294.172 823.7 294.172 824.58C294.172 825.527 293.932 826.353 293.452 827.06C292.985 827.753 292.352 828.293 291.552 828.68C290.765 829.053 289.872 829.24 288.872 829.24ZM288.692 826.82C289.145 826.82 289.545 826.74 289.892 826.58C290.252 826.407 290.532 826.16 290.732 825.84C290.932 825.52 291.032 825.153 291.032 824.74C291.032 824.1 290.812 823.593 290.372 823.22C289.945 822.833 289.372 822.64 288.652 822.64C288.172 822.64 287.752 822.733 287.392 822.92C287.032 823.093 286.745 823.34 286.532 823.66C286.332 823.967 286.232 824.327 286.232 824.74C286.232 825.14 286.332 825.5 286.532 825.82C286.732 826.127 287.012 826.373 287.372 826.56C287.732 826.733 288.172 826.82 288.692 826.82Z" fill="#4A1757"/>
<circle cx="118" cy="821" r="23" fill="#A781DA"/>
<path d="M110.94 828V815.2L112.34 816.6H108.14V814H114.18V828H110.94ZM121.372 828.24C120.399 828.24 119.432 828.113 118.472 827.86C117.525 827.593 116.712 827.22 116.032 826.74L117.312 824.26C117.845 824.647 118.459 824.953 119.152 825.18C119.859 825.407 120.572 825.52 121.292 825.52C122.105 825.52 122.745 825.36 123.212 825.04C123.679 824.72 123.912 824.273 123.912 823.7C123.912 823.34 123.819 823.02 123.632 822.74C123.445 822.46 123.112 822.247 122.632 822.1C122.165 821.953 121.505 821.88 120.652 821.88H117.072L117.792 814H126.332V816.6H118.952L120.632 815.12L120.132 820.74L118.452 819.26H121.412C122.799 819.26 123.912 819.453 124.752 819.84C125.605 820.213 126.225 820.727 126.612 821.38C126.999 822.033 127.192 822.773 127.192 823.6C127.192 824.427 126.985 825.193 126.572 825.9C126.159 826.593 125.519 827.16 124.652 827.6C123.799 828.027 122.705 828.24 121.372 828.24Z" fill="#4A1757"/>
<ellipse cx="450" cy="1015.5" rx="23" ry="22.5" fill="#A781DA"/>
<path d="M442.94 1023V1010.2L444.34 1011.6H440.14V1009H446.18V1023H442.94ZM453.532 1008.76C454.825 1008.76 455.939 1009.03 456.872 1009.56C457.805 1010.09 458.525 1010.87 459.032 1011.9C459.539 1012.91 459.792 1014.18 459.792 1015.7C459.792 1017.31 459.485 1018.68 458.872 1019.8C458.272 1020.92 457.439 1021.77 456.372 1022.36C455.305 1022.95 454.065 1023.24 452.652 1023.24C451.919 1023.24 451.212 1023.16 450.532 1023C449.852 1022.84 449.265 1022.6 448.772 1022.28L449.972 1019.9C450.359 1020.17 450.772 1020.35 451.212 1020.46C451.652 1020.55 452.112 1020.6 452.592 1020.6C453.792 1020.6 454.745 1020.23 455.452 1019.5C456.172 1018.77 456.532 1017.68 456.532 1016.24C456.532 1016 456.525 1015.73 456.512 1015.44C456.499 1015.15 456.465 1014.85 456.412 1014.56L457.292 1015.4C457.065 1015.92 456.745 1016.36 456.332 1016.72C455.919 1017.07 455.439 1017.33 454.892 1017.52C454.345 1017.69 453.732 1017.78 453.052 1017.78C452.159 1017.78 451.345 1017.6 450.612 1017.24C449.892 1016.88 449.312 1016.37 448.872 1015.72C448.445 1015.07 448.232 1014.3 448.232 1013.42C448.232 1012.46 448.465 1011.63 448.932 1010.94C449.412 1010.25 450.052 1009.71 450.852 1009.34C451.665 1008.95 452.559 1008.76 453.532 1008.76ZM453.732 1011.18C453.265 1011.18 452.859 1011.27 452.512 1011.44C452.165 1011.6 451.892 1011.84 451.692 1012.16C451.492 1012.47 451.392 1012.83 451.392 1013.26C451.392 1013.9 451.605 1014.41 452.032 1014.8C452.472 1015.17 453.052 1015.36 453.772 1015.36C454.239 1015.36 454.652 1015.27 455.012 1015.1C455.385 1014.91 455.672 1014.66 455.872 1014.34C456.072 1014.02 456.172 1013.66 456.172 1013.26C456.172 1012.86 456.072 1012.51 455.872 1012.2C455.685 1011.88 455.412 1011.63 455.052 1011.46C454.692 1011.27 454.252 1011.18 453.732 1011.18Z" fill="#4A1757"/>
<ellipse cx="284" cy="1015.5" rx="23" ry="22.5" fill="#A781DA"/>
<path d="M271.66 1023V1020.9L277.06 1015.8C277.487 1015.41 277.8 1015.07 278 1014.76C278.2 1014.45 278.333 1014.17 278.4 1013.92C278.48 1013.67 278.52 1013.43 278.52 1013.22C278.52 1012.66 278.327 1012.23 277.94 1011.94C277.567 1011.63 277.013 1011.48 276.28 1011.48C275.693 1011.48 275.147 1011.59 274.64 1011.82C274.147 1012.05 273.727 1012.4 273.38 1012.88L271.02 1011.36C271.553 1010.56 272.3 1009.93 273.26 1009.46C274.22 1008.99 275.327 1008.76 276.58 1008.76C277.62 1008.76 278.527 1008.93 279.3 1009.28C280.087 1009.61 280.693 1010.09 281.12 1010.7C281.56 1011.31 281.78 1012.05 281.78 1012.9C281.78 1013.35 281.72 1013.81 281.6 1014.26C281.493 1014.7 281.267 1015.17 280.92 1015.66C280.587 1016.15 280.093 1016.71 279.44 1017.32L274.96 1021.54L274.34 1020.36H282.24V1023H271.66ZM289.577 1023.24C288.43 1023.24 287.404 1022.96 286.497 1022.4C285.59 1021.83 284.877 1021 284.357 1019.92C283.837 1018.84 283.577 1017.53 283.577 1016C283.577 1014.47 283.837 1013.16 284.357 1012.08C284.877 1011 285.59 1010.18 286.497 1009.62C287.404 1009.05 288.43 1008.76 289.577 1008.76C290.737 1008.76 291.764 1009.05 292.657 1009.62C293.564 1010.18 294.277 1011 294.797 1012.08C295.317 1013.16 295.577 1014.47 295.577 1016C295.577 1017.53 295.317 1018.84 294.797 1019.92C294.277 1021 293.564 1021.83 292.657 1022.4C291.764 1022.96 290.737 1023.24 289.577 1023.24ZM289.577 1020.5C290.124 1020.5 290.597 1020.35 290.997 1020.04C291.41 1019.73 291.73 1019.25 291.957 1018.58C292.197 1017.91 292.317 1017.05 292.317 1016C292.317 1014.95 292.197 1014.09 291.957 1013.42C291.73 1012.75 291.41 1012.27 290.997 1011.96C290.597 1011.65 290.124 1011.5 289.577 1011.5C289.044 1011.5 288.57 1011.65 288.157 1011.96C287.757 1012.27 287.437 1012.75 287.197 1013.42C286.97 1014.09 286.857 1014.95 286.857 1016C286.857 1017.05 286.97 1017.91 287.197 1018.58C287.437 1019.25 287.757 1019.73 288.157 1020.04C288.57 1020.35 289.044 1020.5 289.577 1020.5Z" fill="#4A1757"/>
<ellipse cx="196" cy="1218.5" rx="23" ry="22.5" fill="#A781DA"/>
<path d="M186.66 1226V1223.9L192.06 1218.8C192.487 1218.41 192.8 1218.07 193 1217.76C193.2 1217.45 193.333 1217.17 193.4 1216.92C193.48 1216.67 193.52 1216.43 193.52 1216.22C193.52 1215.66 193.327 1215.23 192.94 1214.94C192.567 1214.63 192.013 1214.48 191.28 1214.48C190.693 1214.48 190.147 1214.59 189.64 1214.82C189.147 1215.05 188.727 1215.4 188.38 1215.88L186.02 1214.36C186.553 1213.56 187.3 1212.93 188.26 1212.46C189.22 1211.99 190.327 1211.76 191.58 1211.76C192.62 1211.76 193.527 1211.93 194.3 1212.28C195.087 1212.61 195.693 1213.09 196.12 1213.7C196.56 1214.31 196.78 1215.05 196.78 1215.9C196.78 1216.35 196.72 1216.81 196.6 1217.26C196.493 1217.7 196.267 1218.17 195.92 1218.66C195.587 1219.15 195.093 1219.71 194.44 1220.32L189.96 1224.54L189.34 1223.36H197.24V1226H186.66ZM200.737 1226V1213.2L202.137 1214.6H197.937V1212H203.977V1226H200.737Z" fill="#4A1757"/>
<ellipse cx="362" cy="1218.5" rx="23" ry="22.5" fill="#A781DA"/>
<path d="M351.66 1227V1224.9L357.06 1219.8C357.487 1219.41 357.8 1219.07 358 1218.76C358.2 1218.45 358.333 1218.17 358.4 1217.92C358.48 1217.67 358.52 1217.43 358.52 1217.22C358.52 1216.66 358.327 1216.23 357.94 1215.94C357.567 1215.63 357.013 1215.48 356.28 1215.48C355.693 1215.48 355.147 1215.59 354.64 1215.82C354.147 1216.05 353.727 1216.4 353.38 1216.88L351.02 1215.36C351.553 1214.56 352.3 1213.93 353.26 1213.46C354.22 1212.99 355.327 1212.76 356.58 1212.76C357.62 1212.76 358.527 1212.93 359.3 1213.28C360.087 1213.61 360.693 1214.09 361.12 1214.7C361.56 1215.31 361.78 1216.05 361.78 1216.9C361.78 1217.35 361.72 1217.81 361.6 1218.26C361.493 1218.7 361.267 1219.17 360.92 1219.66C360.587 1220.15 360.093 1220.71 359.44 1221.32L354.96 1225.54L354.34 1224.36H362.24V1227H351.66ZM363.457 1227V1224.9L368.857 1219.8C369.284 1219.41 369.597 1219.07 369.797 1218.76C369.997 1218.45 370.13 1218.17 370.197 1217.92C370.277 1217.67 370.317 1217.43 370.317 1217.22C370.317 1216.66 370.124 1216.23 369.737 1215.94C369.364 1215.63 368.81 1215.48 368.077 1215.48C367.49 1215.48 366.944 1215.59 366.437 1215.82C365.944 1216.05 365.524 1216.4 365.177 1216.88L362.817 1215.36C363.35 1214.56 364.097 1213.93 365.057 1213.46C366.017 1212.99 367.124 1212.76 368.377 1212.76C369.417 1212.76 370.324 1212.93 371.097 1213.28C371.884 1213.61 372.49 1214.09 372.917 1214.7C373.357 1215.31 373.577 1216.05 373.577 1216.9C373.577 1217.35 373.517 1217.81 373.397 1218.26C373.29 1218.7 373.064 1219.17 372.717 1219.66C372.384 1220.15 371.89 1220.71 371.237 1221.32L366.757 1225.54L366.137 1224.36H374.037V1227H363.457Z" fill="#4A1757"/>
<ellipse cx="528" cy="1218.5" rx="32" ry="31.5" fill="#644C8B"/>
<ellipse cx="528" cy="1218.5" rx="23" ry="22.5" fill="#A781DA"/>
</svg>
